<?xml version="1.0" encoding="utf-8"?>
<!-- Generator: Adobe Illustrator 22.0.0, SVG Export Plug-In . SVG Version: 6.00 Build 0)  -->
<svg version="1.1" id="Capa_1" xmlns="http://www.w3.org/2000/svg" xmlns:xlink="http://www.w3.org/1999/xlink" x="0px" y="0px"
	 viewBox="0 0 498 264" style="enable-background:new 0 0 498 264;" xml:space="preserve">
<style type="text/css">
	.st0{fill:none;stroke:url(#SVGID_1_);stroke-width:2;stroke-miterlimit:10;}
	.st1{fill:none;stroke:url(#SVGID_2_);stroke-width:2;stroke-miterlimit:10;}
	.st2{fill:none;stroke:url(#SVGID_3_);stroke-width:2;stroke-miterlimit:10;}
	.st3{fill:none;stroke:url(#SVGID_4_);stroke-width:2;stroke-miterlimit:10;}
	.st4{fill:none;stroke:url(#SVGID_5_);stroke-width:2;stroke-miterlimit:10;}
	.st5{fill:none;stroke:url(#SVGID_6_);stroke-width:2;stroke-miterlimit:10;}
	.st6{fill:none;stroke:url(#SVGID_7_);stroke-width:2;stroke-miterlimit:10;}
	.st7{fill:none;stroke:url(#SVGID_8_);stroke-width:2;stroke-miterlimit:10;}
	.st8{font-family:'ArialMT';}
	.st9{font-size:12px;}
	.st10{fill:none;stroke:url(#SVGID_9_);stroke-width:2;stroke-miterlimit:10;}
	.st11{fill:none;stroke:url(#SVGID_10_);stroke-width:2;stroke-miterlimit:10;}
	.st12{fill:none;stroke:url(#SVGID_11_);stroke-width:2;stroke-miterlimit:10;}
	.st13{fill:none;stroke:url(#SVGID_12_);stroke-width:2;stroke-miterlimit:10;}
	.st14{fill:none;stroke:url(#SVGID_13_);stroke-width:2;stroke-miterlimit:10;}
	.st15{fill:none;stroke:url(#SVGID_14_);stroke-width:2;stroke-miterlimit:10;}
	.st16{fill:none;stroke:url(#SVGID_15_);stroke-width:2;stroke-miterlimit:10;}
	.st17{fill:none;stroke:url(#SVGID_16_);stroke-width:2;stroke-miterlimit:10;}
	.st18{fill:none;stroke:url(#SVGID_17_);stroke-width:2;stroke-miterlimit:10;}
	.st19{fill:none;stroke:url(#SVGID_18_);stroke-width:2;stroke-miterlimit:10;}
	.st20{fill:none;stroke:url(#SVGID_19_);stroke-width:2;stroke-miterlimit:10;}
	.st21{fill:none;stroke:url(#SVGID_20_);stroke-width:2;stroke-miterlimit:10;}
	.st22{fill:none;stroke:url(#SVGID_21_);stroke-width:2;stroke-miterlimit:10;}
	.st23{fill:none;stroke:url(#SVGID_22_);stroke-width:2;stroke-miterlimit:10;}
	.st24{fill:none;stroke:url(#SVGID_23_);stroke-width:2;stroke-miterlimit:10;}
	.st25{fill:none;stroke:url(#SVGID_24_);stroke-width:2;stroke-miterlimit:10;}
	.st26{fill:none;stroke:url(#SVGID_25_);stroke-width:2;stroke-miterlimit:10;}
	.st27{fill:none;stroke:url(#SVGID_26_);stroke-width:2;stroke-miterlimit:10;}
	.st28{fill:none;stroke:url(#SVGID_27_);stroke-width:2;stroke-miterlimit:10;}
	.st29{fill:none;stroke:url(#SVGID_28_);stroke-width:2;stroke-miterlimit:10;}
	.st30{fill:none;stroke:url(#SVGID_29_);stroke-width:2;stroke-miterlimit:10;}
	.st31{fill:none;stroke:url(#SVGID_30_);stroke-width:2;stroke-miterlimit:10;}
	.st32{fill:none;stroke:url(#SVGID_31_);stroke-width:2;stroke-miterlimit:10;}
	.st33{fill:none;stroke:url(#SVGID_32_);stroke-width:2;stroke-miterlimit:10;}
	.st34{fill:none;stroke:url(#SVGID_33_);stroke-width:2;stroke-miterlimit:10;}
</style>
<linearGradient id="SVGID_1_" gradientUnits="userSpaceOnUse" x1="170.4333" y1="126.8703" x2="170.4333" y2="161.2703" gradientTransform="matrix(1 0 0 -1 0 266)">
	<stop  offset="0" style="stop-color:#C10C90"/>
	<stop  offset="1" style="stop-color:#CD16E7"/>
</linearGradient>
<circle class="st0" cx="170.4" cy="121.9" r="16.2"/>
<linearGradient id="SVGID_2_" gradientUnits="userSpaceOnUse" x1="211.2333" y1="126.8703" x2="211.2333" y2="161.2703" gradientTransform="matrix(1 0 0 -1 0 266)">
	<stop  offset="0" style="stop-color:#C10C90"/>
	<stop  offset="1" style="stop-color:#CD16E7"/>
</linearGradient>
<circle class="st1" cx="211.2" cy="121.9" r="16.2"/>
<linearGradient id="SVGID_3_" gradientUnits="userSpaceOnUse" x1="-18.0325" y1="269.3807" x2="-18.0325" y2="303.7807" gradientTransform="matrix(0.1602 -0.9871 -0.9871 -0.1602 537.9125 150.04)">
	<stop  offset="0" style="stop-color:#C10C90"/>
	<stop  offset="1" style="stop-color:#CD16E7"/>
</linearGradient>
<ellipse transform="matrix(0.3162 -0.9487 0.9487 0.3162 56.7305 322.57)" class="st2" cx="252.1" cy="121.9" rx="16.2" ry="16.2"/>
<linearGradient id="SVGID_4_" gradientUnits="userSpaceOnUse" x1="334.3333" y1="126.8703" x2="334.3333" y2="161.2703" gradientTransform="matrix(1 0 0 -1 0 266)">
	<stop  offset="0" style="stop-color:#C10C90"/>
	<stop  offset="1" style="stop-color:#CD16E7"/>
</linearGradient>
<circle class="st3" cx="334.3" cy="121.9" r="16.2"/>
<linearGradient id="SVGID_5_" gradientUnits="userSpaceOnUse" x1="293.5334" y1="126.8703" x2="293.5334" y2="161.2703" gradientTransform="matrix(1 0 0 -1 0 266)">
	<stop  offset="0" style="stop-color:#C10C90"/>
	<stop  offset="1" style="stop-color:#CD16E7"/>
</linearGradient>
<circle class="st4" cx="293.5" cy="121.9" r="16.2"/>
<g>
	
		<linearGradient id="SVGID_6_" gradientUnits="userSpaceOnUse" x1="48.0333" y1="197.4503" x2="48.0333" y2="231.8503" gradientTransform="matrix(1 0 0 -1 0 266)">
		<stop  offset="0" style="stop-color:#C10C90"/>
		<stop  offset="1" style="stop-color:#CD16E7"/>
	</linearGradient>
	<circle class="st5" cx="48" cy="51.3" r="16.2"/>
	
		<linearGradient id="SVGID_7_" gradientUnits="userSpaceOnUse" x1="88.8333" y1="169.8836" x2="88.8333" y2="204.2836" gradientTransform="matrix(1 0 0 -1 0 266)">
		<stop  offset="0" style="stop-color:#C10C90"/>
		<stop  offset="1" style="stop-color:#CD16E7"/>
	</linearGradient>
	<circle class="st6" cx="88.8" cy="78.9" r="16.2"/>
	
		<linearGradient id="SVGID_8_" gradientUnits="userSpaceOnUse" x1="129.6333" y1="144.6837" x2="129.6333" y2="179.0837" gradientTransform="matrix(1 0 0 -1 0 266)">
		<stop  offset="0" style="stop-color:#C10C90"/>
		<stop  offset="1" style="stop-color:#CD16E7"/>
	</linearGradient>
	<circle class="st7" cx="129.6" cy="104.1" r="16.2"/>
	<text transform="matrix(1 0 0 1 44.8333 54.5504)" class="st8 st9">1</text>
	<text transform="matrix(1 0 0 1 85.5 82.1169)" class="st8 st9">2</text>
	<text transform="matrix(1 0 0 1 126.5 107.3171)" class="st8 st9">3</text>
</g>
<g>
	
		<linearGradient id="SVGID_9_" gradientUnits="userSpaceOnUse" x1="48.0333" y1="153.4503" x2="48.0333" y2="187.8503" gradientTransform="matrix(1 0 0 -1 0 266)">
		<stop  offset="0" style="stop-color:#C10C90"/>
		<stop  offset="1" style="stop-color:#CD16E7"/>
	</linearGradient>
	<circle class="st10" cx="48" cy="95.3" r="16.2"/>
	
		<linearGradient id="SVGID_10_" gradientUnits="userSpaceOnUse" x1="88.8333" y1="125.8836" x2="88.8333" y2="160.2836" gradientTransform="matrix(1 0 0 -1 0 266)">
		<stop  offset="0" style="stop-color:#C10C90"/>
		<stop  offset="1" style="stop-color:#CD16E7"/>
	</linearGradient>
	<circle class="st11" cx="88.8" cy="122.9" r="16.2"/>
	
		<linearGradient id="SVGID_11_" gradientUnits="userSpaceOnUse" x1="129.6333" y1="100.6837" x2="129.6333" y2="135.0837" gradientTransform="matrix(1 0 0 -1 0 266)">
		<stop  offset="0" style="stop-color:#C10C90"/>
		<stop  offset="1" style="stop-color:#CD16E7"/>
	</linearGradient>
	<circle class="st12" cx="129.6" cy="148.1" r="16.2"/>
	<text transform="matrix(1 0 0 1 44.8333 98.5504)" class="st8 st9">1</text>
	<text transform="matrix(1 0 0 1 85.5 126.1169)" class="st8 st9">2</text>
	<text transform="matrix(1 0 0 1 126.5 151.3171)" class="st8 st9">3</text>
</g>
<g>
	
		<linearGradient id="SVGID_12_" gradientUnits="userSpaceOnUse" x1="48.0333" y1="109.2003" x2="48.0333" y2="143.6003" gradientTransform="matrix(1 0 0 -1 0 266)">
		<stop  offset="0" style="stop-color:#C10C90"/>
		<stop  offset="1" style="stop-color:#CD16E7"/>
	</linearGradient>
	<circle class="st13" cx="48" cy="139.6" r="16.2"/>
	
		<linearGradient id="SVGID_13_" gradientUnits="userSpaceOnUse" x1="88.8333" y1="81.6336" x2="88.8333" y2="116.0336" gradientTransform="matrix(1 0 0 -1 0 266)">
		<stop  offset="0" style="stop-color:#C10C90"/>
		<stop  offset="1" style="stop-color:#CD16E7"/>
	</linearGradient>
	<circle class="st14" cx="88.8" cy="167.2" r="16.2"/>
	
		<linearGradient id="SVGID_14_" gradientUnits="userSpaceOnUse" x1="129.6333" y1="56.4337" x2="129.6333" y2="90.8337" gradientTransform="matrix(1 0 0 -1 0 266)">
		<stop  offset="0" style="stop-color:#C10C90"/>
		<stop  offset="1" style="stop-color:#CD16E7"/>
	</linearGradient>
	<circle class="st15" cx="129.6" cy="192.4" r="16.2"/>
	<text transform="matrix(1 0 0 1 44.8333 142.8004)" class="st8 st9">1</text>
	<text transform="matrix(1 0 0 1 85.5 170.3669)" class="st8 st9">2</text>
	<text transform="matrix(1 0 0 1 126.5 195.5671)" class="st8 st9">3</text>
</g>
<text transform="matrix(1 0 0 1 166.5 125.1304)" class="st8 st9">4</text>
<text transform="matrix(1 0 0 1 207.3333 125.1302)" class="st8 st9">5</text>
<text transform="matrix(1 0 0 1 248.6665 125.1302)" class="st8 st9">6</text>
<text transform="matrix(1 0 0 1 290.1667 125.1302)" class="st8 st9">7</text>
<text transform="matrix(1 0 0 1 330.8333 125.1302)" class="st8 st9">8</text>
<linearGradient id="SVGID_15_" gradientUnits="userSpaceOnUse" x1="170.4333" y1="80.3703" x2="170.4333" y2="114.7703" gradientTransform="matrix(1 0 0 -1 0 266)">
	<stop  offset="0" style="stop-color:#C10C90"/>
	<stop  offset="1" style="stop-color:#CD16E7"/>
</linearGradient>
<circle class="st16" cx="170.4" cy="168.4" r="16.2"/>
<linearGradient id="SVGID_16_" gradientUnits="userSpaceOnUse" x1="211.2333" y1="80.3703" x2="211.2333" y2="114.7703" gradientTransform="matrix(1 0 0 -1 0 266)">
	<stop  offset="0" style="stop-color:#C10C90"/>
	<stop  offset="1" style="stop-color:#CD16E7"/>
</linearGradient>
<circle class="st17" cx="211.2" cy="168.4" r="16.2"/>
<linearGradient id="SVGID_17_" gradientUnits="userSpaceOnUse" x1="-63.9313" y1="261.9316" x2="-63.9313" y2="296.3316" gradientTransform="matrix(0.1602 -0.9871 -0.9871 -0.1602 537.9125 150.04)">
	<stop  offset="0" style="stop-color:#C10C90"/>
	<stop  offset="1" style="stop-color:#CD16E7"/>
</linearGradient>
<ellipse transform="matrix(0.3162 -0.9487 0.9487 0.3162 12.6169 354.3647)" class="st18" cx="252.1" cy="168.4" rx="16.2" ry="16.2"/>
<linearGradient id="SVGID_18_" gradientUnits="userSpaceOnUse" x1="334.3333" y1="80.3703" x2="334.3333" y2="114.7703" gradientTransform="matrix(1 0 0 -1 0 266)">
	<stop  offset="0" style="stop-color:#C10C90"/>
	<stop  offset="1" style="stop-color:#CD16E7"/>
</linearGradient>
<circle class="st19" cx="334.3" cy="168.4" r="16.2"/>
<linearGradient id="SVGID_19_" gradientUnits="userSpaceOnUse" x1="293.5334" y1="80.3703" x2="293.5334" y2="114.7703" gradientTransform="matrix(1 0 0 -1 0 266)">
	<stop  offset="0" style="stop-color:#C10C90"/>
	<stop  offset="1" style="stop-color:#CD16E7"/>
</linearGradient>
<circle class="st20" cx="293.5" cy="168.4" r="16.2"/>
<text transform="matrix(1 0 0 1 166.5 171.6304)" class="st8 st9">4</text>
<text transform="matrix(1 0 0 1 207.3333 171.6302)" class="st8 st9">5</text>
<text transform="matrix(1 0 0 1 248.6665 171.6302)" class="st8 st9">6</text>
<text transform="matrix(1 0 0 1 290.1667 171.6302)" class="st8 st9">7</text>
<linearGradient id="SVGID_20_" gradientUnits="userSpaceOnUse" x1="170.4333" y1="33.3703" x2="170.4333" y2="67.7703" gradientTransform="matrix(1 0 0 -1 0 266)">
	<stop  offset="0" style="stop-color:#C10C90"/>
	<stop  offset="1" style="stop-color:#CD16E7"/>
</linearGradient>
<circle class="st21" cx="170.4" cy="215.4" r="16.2"/>
<linearGradient id="SVGID_21_" gradientUnits="userSpaceOnUse" x1="211.2333" y1="33.3703" x2="211.2333" y2="67.7703" gradientTransform="matrix(1 0 0 -1 0 266)">
	<stop  offset="0" style="stop-color:#C10C90"/>
	<stop  offset="1" style="stop-color:#CD16E7"/>
</linearGradient>
<circle class="st22" cx="211.2" cy="215.4" r="16.2"/>
<linearGradient id="SVGID_22_" gradientUnits="userSpaceOnUse" x1="-110.3236" y1="254.4025" x2="-110.3236" y2="288.8025" gradientTransform="matrix(0.1602 -0.9871 -0.9871 -0.1602 537.9125 150.04)">
	<stop  offset="0" style="stop-color:#C10C90"/>
	<stop  offset="1" style="stop-color:#CD16E7"/>
</linearGradient>
<ellipse transform="matrix(0.3162 -0.9487 0.9487 0.3162 -31.9709 386.5013)" class="st23" cx="252.1" cy="215.4" rx="16.2" ry="16.2"/>
<linearGradient id="SVGID_23_" gradientUnits="userSpaceOnUse" x1="334.3333" y1="33.3703" x2="334.3333" y2="67.7703" gradientTransform="matrix(1 0 0 -1 0 266)">
	<stop  offset="0" style="stop-color:#C10C90"/>
	<stop  offset="1" style="stop-color:#CD16E7"/>
</linearGradient>
<circle class="st24" cx="334.3" cy="215.4" r="16.2"/>
<linearGradient id="SVGID_24_" gradientUnits="userSpaceOnUse" x1="293.5334" y1="33.3703" x2="293.5334" y2="67.7703" gradientTransform="matrix(1 0 0 -1 0 266)">
	<stop  offset="0" style="stop-color:#C10C90"/>
	<stop  offset="1" style="stop-color:#CD16E7"/>
</linearGradient>
<circle class="st25" cx="293.5" cy="215.4" r="16.2"/>
<text transform="matrix(1 0 0 1 166.5 218.6304)" class="st8 st9">4</text>
<text transform="matrix(1 0 0 1 207.3333 218.6302)" class="st8 st9">5</text>
<text transform="matrix(1 0 0 1 248.6665 218.6302)" class="st8 st9">6</text>
<text transform="matrix(1 0 0 1 290.1667 218.6302)" class="st8 st9">7</text>
<text transform="matrix(1 0 0 1 330.8333 171.6302)" class="st8 st9">8</text>
<g>
	
		<linearGradient id="SVGID_25_" gradientUnits="userSpaceOnUse" x1="456.7333" y1="197.4503" x2="456.7333" y2="231.8503" gradientTransform="matrix(1 0 0 -1 0 266)">
		<stop  offset="0" style="stop-color:#C10C90"/>
		<stop  offset="1" style="stop-color:#CD16E7"/>
	</linearGradient>
	<circle class="st26" cx="456.7" cy="51.3" r="16.2"/>
	
		<linearGradient id="SVGID_26_" gradientUnits="userSpaceOnUse" x1="415.9333" y1="169.8836" x2="415.9333" y2="204.2836" gradientTransform="matrix(1 0 0 -1 0 266)">
		<stop  offset="0" style="stop-color:#C10C90"/>
		<stop  offset="1" style="stop-color:#CD16E7"/>
	</linearGradient>
	<circle class="st27" cx="415.9" cy="78.9" r="16.2"/>
	
		<linearGradient id="SVGID_27_" gradientUnits="userSpaceOnUse" x1="375.1333" y1="144.6837" x2="375.1333" y2="179.0837" gradientTransform="matrix(1 0 0 -1 0 266)">
		<stop  offset="0" style="stop-color:#C10C90"/>
		<stop  offset="1" style="stop-color:#CD16E7"/>
	</linearGradient>
	<circle class="st28" cx="375.1" cy="104.1" r="16.2"/>
	<text transform="matrix(1 0 0 1 371.1667 107.317)" class="st8 st9">9</text>
	<text transform="matrix(1 0 0 1 408.1667 82.1169)" class="st8 st9">10</text>
	<text transform="matrix(1 0 0 1 449.8333 54.5504)" class="st8 st9">11</text>
</g>
<g>
	
		<linearGradient id="SVGID_28_" gradientUnits="userSpaceOnUse" x1="456.7333" y1="153.4503" x2="456.7333" y2="187.8503" gradientTransform="matrix(1 0 0 -1 0 266)">
		<stop  offset="0" style="stop-color:#C10C90"/>
		<stop  offset="1" style="stop-color:#CD16E7"/>
	</linearGradient>
	<circle class="st29" cx="456.7" cy="95.3" r="16.2"/>
	
		<linearGradient id="SVGID_29_" gradientUnits="userSpaceOnUse" x1="415.9333" y1="125.8836" x2="415.9333" y2="160.2836" gradientTransform="matrix(1 0 0 -1 0 266)">
		<stop  offset="0" style="stop-color:#C10C90"/>
		<stop  offset="1" style="stop-color:#CD16E7"/>
	</linearGradient>
	<circle class="st30" cx="415.9" cy="122.9" r="16.2"/>
	
		<linearGradient id="SVGID_30_" gradientUnits="userSpaceOnUse" x1="375.1333" y1="100.6837" x2="375.1333" y2="135.0837" gradientTransform="matrix(1 0 0 -1 0 266)">
		<stop  offset="0" style="stop-color:#C10C90"/>
		<stop  offset="1" style="stop-color:#CD16E7"/>
	</linearGradient>
	<circle class="st31" cx="375.1" cy="148.1" r="16.2"/>
	<text transform="matrix(1 0 0 1 371.1667 151.317)" class="st8 st9">9</text>
	<text transform="matrix(1 0 0 1 408.1667 126.1169)" class="st8 st9">10</text>
	<text transform="matrix(1 0 0 1 449.8333 98.5504)" class="st8 st9">11</text>
</g>
<g>
	
		<linearGradient id="SVGID_31_" gradientUnits="userSpaceOnUse" x1="456.7333" y1="109.2003" x2="456.7333" y2="143.6003" gradientTransform="matrix(1 0 0 -1 0 266)">
		<stop  offset="0" style="stop-color:#C10C90"/>
		<stop  offset="1" style="stop-color:#CD16E7"/>
	</linearGradient>
	<circle class="st32" cx="456.7" cy="139.6" r="16.2"/>
	
		<linearGradient id="SVGID_32_" gradientUnits="userSpaceOnUse" x1="415.9333" y1="81.6336" x2="415.9333" y2="116.0336" gradientTransform="matrix(1 0 0 -1 0 266)">
		<stop  offset="0" style="stop-color:#C10C90"/>
		<stop  offset="1" style="stop-color:#CD16E7"/>
	</linearGradient>
	<circle class="st33" cx="415.9" cy="167.2" r="16.2"/>
	
		<linearGradient id="SVGID_33_" gradientUnits="userSpaceOnUse" x1="375.1333" y1="56.4337" x2="375.1333" y2="90.8337" gradientTransform="matrix(1 0 0 -1 0 266)">
		<stop  offset="0" style="stop-color:#C10C90"/>
		<stop  offset="1" style="stop-color:#CD16E7"/>
	</linearGradient>
	<circle class="st34" cx="375.1" cy="192.4" r="16.2"/>
	<text transform="matrix(1 0 0 1 371.1667 195.567)" class="st8 st9">9</text>
	<text transform="matrix(1 0 0 1 408.1667 170.3669)" class="st8 st9">10</text>
	<text transform="matrix(1 0 0 1 449.8333 142.8004)" class="st8 st9">11</text>
</g>
<g>
	<text transform="matrix(1 0 0 1 327.8333 220)" class="st8 st9">10</text>
</g>
</svg>
