<?xml version="1.0" encoding="utf-8"?>
<!-- Generator: Adobe Illustrator 22.0.0, SVG Export Plug-In . SVG Version: 6.00 Build 0)  -->
<svg version="1.1" id="BACKGROUND" xmlns="http://www.w3.org/2000/svg" xmlns:xlink="http://www.w3.org/1999/xlink" x="0px" y="0px"
	 viewBox="0 0 1330 628" style="enable-background:new 0 0 1330 628;" xml:space="preserve">
<style type="text/css">
	.st0{fill:#EDEDED;stroke:url(#SVGID_1_);stroke-width:3;stroke-miterlimit:10;}
	.st1{fill:#EDEDED;stroke:url(#SVGID_2_);stroke-width:3;stroke-miterlimit:10;}
	.st2{fill:#EDEDED;stroke:url(#SVGID_3_);stroke-width:3;stroke-miterlimit:10;}
	.st3{fill:#EDEDED;stroke:url(#SVGID_4_);stroke-width:3;stroke-miterlimit:10;}
	.st4{fill:#EDEDED;stroke:url(#SVGID_5_);stroke-width:3;stroke-miterlimit:10;}
	.st5{fill:#EDEDED;stroke:url(#SVGID_6_);stroke-width:3;stroke-miterlimit:10;}
	.st6{fill:#EDEDED;stroke:url(#SVGID_7_);stroke-width:3;stroke-miterlimit:10;}
	.st7{fill:#EDEDED;stroke:url(#SVGID_8_);stroke-width:3;stroke-miterlimit:10;}
	.st8{fill:#EDEDED;stroke:url(#SVGID_9_);stroke-width:3;stroke-miterlimit:10;}
	.st9{fill:#EDEDED;stroke:url(#SVGID_10_);stroke-width:3;stroke-miterlimit:10;}
	.st10{fill:#EDEDED;stroke:url(#SVGID_11_);stroke-width:3;stroke-miterlimit:10;}
	.st11{fill:#EDEDED;stroke:url(#SVGID_12_);stroke-width:3;stroke-miterlimit:10;}
	.st12{fill:#EDEDED;stroke:url(#SVGID_13_);stroke-width:3;stroke-miterlimit:10;}
	.st13{fill:#EDEDED;stroke:url(#SVGID_14_);stroke-width:3;stroke-miterlimit:10;}
	.st14{fill:#EDEDED;stroke:url(#SVGID_15_);stroke-width:3;stroke-miterlimit:10;}
	.st15{fill:#EDEDED;stroke:url(#SVGID_16_);stroke-width:3;stroke-miterlimit:10;}
	.st16{fill:#EDEDED;stroke:url(#SVGID_17_);stroke-width:3;stroke-miterlimit:10;}
	.st17{fill:#EDEDED;stroke:url(#SVGID_18_);stroke-width:3;stroke-miterlimit:10;}
	.st18{fill:#EDEDED;stroke:url(#SVGID_19_);stroke-width:3;stroke-miterlimit:10;}
	.st19{fill:#EDEDED;stroke:url(#SVGID_20_);stroke-width:3;stroke-miterlimit:10;}
	.st20{fill:#EDEDED;stroke:url(#SVGID_21_);stroke-width:3;stroke-miterlimit:10;}
	.st21{fill:#EDEDED;stroke:url(#SVGID_22_);stroke-width:3;stroke-miterlimit:10;}
	.st22{fill:#EDEDED;stroke:url(#SVGID_23_);stroke-width:3;stroke-miterlimit:10;}
	.st23{fill:#EDEDED;stroke:url(#SVGID_24_);stroke-width:3;stroke-miterlimit:10;}
	.st24{fill:#EDEDED;stroke:url(#SVGID_25_);stroke-width:3;stroke-miterlimit:10;}
	.st25{fill:#EDEDED;stroke:url(#SVGID_26_);stroke-width:3;stroke-miterlimit:10;}
	.st26{fill:#EDEDED;stroke:url(#SVGID_27_);stroke-width:3;stroke-miterlimit:10;}
	.st27{fill:#EDEDED;stroke:url(#SVGID_28_);stroke-width:3;stroke-miterlimit:10;}
	.st28{fill:#EDEDED;stroke:url(#SVGID_29_);stroke-width:3;stroke-miterlimit:10;}
	.st29{font-family:'ArialMT';}
	.st30{font-size:15px;}
</style>
<g>
	<linearGradient id="SVGID_1_" gradientUnits="userSpaceOnUse" x1="1191.5499" y1="606.4" x2="1191.5499" y2="473.2">
		<stop  offset="0" style="stop-color:#0021FF"/>
		<stop  offset="1" style="stop-color:#8197FF"/>
	</linearGradient>
	<path class="st0" d="M1207.2,604.9h-53.4V474.7h53.4c12.2,0,22.1,9.9,22.1,22.1v86.1C1229.2,595,1219.3,604.9,1207.2,604.9z"/>
	<linearGradient id="SVGID_2_" gradientUnits="userSpaceOnUse" x1="1108.05" y1="606.4" x2="1108.05" y2="473.2">
		<stop  offset="0" style="stop-color:#0021FF"/>
		<stop  offset="1" style="stop-color:#8197FF"/>
	</linearGradient>
	<path class="st1" d="M1092.4,474.7h53.4v130.2h-53.4c-12.2,0-22.1-9.9-22.1-22.1v-86.1C1070.3,484.5,1080.2,474.7,1092.4,474.7z"/>
</g>
<g>
	<linearGradient id="SVGID_3_" gradientUnits="userSpaceOnUse" x1="441.55" y1="392.4" x2="441.55" y2="259.2">
		<stop  offset="0" style="stop-color:#0021FF"/>
		<stop  offset="1" style="stop-color:#8197FF"/>
	</linearGradient>
	<path class="st2" d="M457.2,390.9h-53.4V260.7h53.4c12.2,0,22.1,9.9,22.1,22.1v86.1C479.2,381,469.3,390.9,457.2,390.9z"/>
	<linearGradient id="SVGID_4_" gradientUnits="userSpaceOnUse" x1="358.05" y1="392.4" x2="358.05" y2="259.2">
		<stop  offset="0" style="stop-color:#0021FF"/>
		<stop  offset="1" style="stop-color:#8197FF"/>
	</linearGradient>
	<path class="st3" d="M342.4,260.7h53.4v130.2h-53.4c-12.2,0-22.1-9.9-22.1-22.1v-86.1C320.3,270.5,330.2,260.7,342.4,260.7z"/>
</g>
<g>
	<linearGradient id="SVGID_5_" gradientUnits="userSpaceOnUse" x1="1025.45" y1="606.4" x2="1025.45" y2="473.2">
		<stop  offset="0" style="stop-color:#0021FF"/>
		<stop  offset="1" style="stop-color:#8197FF"/>
	</linearGradient>
	<path class="st4" d="M1041.1,604.9h-53.4V474.7h53.4c12.2,0,22.1,9.9,22.1,22.1v86.1C1063.1,595,1053.3,604.9,1041.1,604.9z"/>
	<linearGradient id="SVGID_6_" gradientUnits="userSpaceOnUse" x1="941.95" y1="606.4" x2="941.95" y2="473.2">
		<stop  offset="0" style="stop-color:#0021FF"/>
		<stop  offset="1" style="stop-color:#8197FF"/>
	</linearGradient>
	<path class="st5" d="M926.3,474.7h53.4v130.2h-53.4c-12.2,0-22.1-9.9-22.1-22.1v-86.1C904.3,484.5,914.1,474.7,926.3,474.7z"/>
</g>
<g>
	<linearGradient id="SVGID_7_" gradientUnits="userSpaceOnUse" x1="859.35" y1="606.4" x2="859.35" y2="473.2">
		<stop  offset="0" style="stop-color:#0021FF"/>
		<stop  offset="1" style="stop-color:#8197FF"/>
	</linearGradient>
	<path class="st6" d="M875,604.9h-53.4V474.7H875c12.2,0,22.1,9.9,22.1,22.1v86.1C897.1,595,887.2,604.9,875,604.9z"/>
	<linearGradient id="SVGID_8_" gradientUnits="userSpaceOnUse" x1="775.95" y1="606.4" x2="775.95" y2="473.2">
		<stop  offset="0" style="stop-color:#0021FF"/>
		<stop  offset="1" style="stop-color:#8197FF"/>
	</linearGradient>
	<path class="st7" d="M760.3,474.7h53.4v130.2h-53.4c-12.2,0-22.1-9.9-22.1-22.1v-86.1C738.2,484.5,748.1,474.7,760.3,474.7z"/>
</g>
<g>
	<linearGradient id="SVGID_9_" gradientUnits="userSpaceOnUse" x1="693.25" y1="606.4" x2="693.25" y2="473.2">
		<stop  offset="0" style="stop-color:#0021FF"/>
		<stop  offset="1" style="stop-color:#8197FF"/>
	</linearGradient>
	<path class="st8" d="M708.9,604.9h-53.4V474.7h53.4c12.2,0,22.1,9.9,22.1,22.1v86.1C731,595,721.1,604.9,708.9,604.9z"/>
	<linearGradient id="SVGID_10_" gradientUnits="userSpaceOnUse" x1="609.85" y1="606.4" x2="609.85" y2="473.2">
		<stop  offset="0" style="stop-color:#0021FF"/>
		<stop  offset="1" style="stop-color:#8197FF"/>
	</linearGradient>
	<path class="st9" d="M594.2,474.7h53.4v130.2h-53.4c-12.2,0-22.1-9.9-22.1-22.1v-86.1C572.1,484.5,582,474.7,594.2,474.7z"/>
</g>
<g>
	<linearGradient id="SVGID_11_" gradientUnits="userSpaceOnUse" x1="527.25" y1="606.4" x2="527.25" y2="473.2">
		<stop  offset="0" style="stop-color:#0021FF"/>
		<stop  offset="1" style="stop-color:#8197FF"/>
	</linearGradient>
	<path class="st10" d="M542.9,604.9h-53.4V474.7h53.4c12.2,0,22.1,9.9,22.1,22.1v86.1C564.9,595,555.1,604.9,542.9,604.9z"/>
	<linearGradient id="SVGID_12_" gradientUnits="userSpaceOnUse" x1="443.75" y1="606.4" x2="443.75" y2="473.2">
		<stop  offset="0" style="stop-color:#0021FF"/>
		<stop  offset="1" style="stop-color:#8197FF"/>
	</linearGradient>
	<path class="st11" d="M428.1,474.7h53.4v130.2h-53.4c-12.2,0-22.1-9.9-22.1-22.1v-86.1C406.1,484.5,415.9,474.7,428.1,474.7z"/>
</g>
<g>
	<linearGradient id="SVGID_13_" gradientUnits="userSpaceOnUse" x1="361.15" y1="606.4" x2="361.15" y2="473.2">
		<stop  offset="0" style="stop-color:#0021FF"/>
		<stop  offset="1" style="stop-color:#8197FF"/>
	</linearGradient>
	<path class="st12" d="M376.8,604.9h-53.4V474.7h53.4c12.2,0,22.1,9.9,22.1,22.1v86.1C398.9,595,389,604.9,376.8,604.9z"/>
	<linearGradient id="SVGID_14_" gradientUnits="userSpaceOnUse" x1="277.65" y1="606.4" x2="277.65" y2="473.2">
		<stop  offset="0" style="stop-color:#0021FF"/>
		<stop  offset="1" style="stop-color:#8197FF"/>
	</linearGradient>
	<path class="st13" d="M262,474.7h53.4v130.2H262c-12.2,0-22.1-9.9-22.1-22.1v-86.1C240,484.5,249.9,474.7,262,474.7z"/>
</g>
<g>
	<linearGradient id="SVGID_15_" gradientUnits="userSpaceOnUse" x1="195.05" y1="606.4" x2="195.05" y2="473.2">
		<stop  offset="0" style="stop-color:#0021FF"/>
		<stop  offset="1" style="stop-color:#8197FF"/>
	</linearGradient>
	<path class="st14" d="M210.7,604.9h-53.4V474.7h53.4c12.2,0,22.1,9.9,22.1,22.1v86.1C232.8,595,222.9,604.9,210.7,604.9z"/>
</g>
<g>
	<linearGradient id="SVGID_16_" gradientUnits="userSpaceOnUse" x1="1191.5499" y1="158.4" x2="1191.5499" y2="25.2">
		<stop  offset="0" style="stop-color:#0021FF"/>
		<stop  offset="1" style="stop-color:#8197FF"/>
	</linearGradient>
	<path class="st15" d="M1207.2,156.9h-53.4V26.7h53.4c12.2,0,22.1,9.9,22.1,22.1v86.1C1229.2,147,1219.3,156.9,1207.2,156.9z"/>
	<linearGradient id="SVGID_17_" gradientUnits="userSpaceOnUse" x1="1108.05" y1="158.4" x2="1108.05" y2="25.2">
		<stop  offset="0" style="stop-color:#0021FF"/>
		<stop  offset="1" style="stop-color:#8197FF"/>
	</linearGradient>
	<path class="st16" d="M1092.4,26.7h53.4v130.2h-53.4c-12.2,0-22.1-9.9-22.1-22.1V48.7C1070.3,36.5,1080.2,26.7,1092.4,26.7z"/>
</g>
<g>
	<linearGradient id="SVGID_18_" gradientUnits="userSpaceOnUse" x1="1025.45" y1="158.4" x2="1025.45" y2="25.2">
		<stop  offset="0" style="stop-color:#0021FF"/>
		<stop  offset="1" style="stop-color:#8197FF"/>
	</linearGradient>
	<path class="st17" d="M1041.1,156.9h-53.4V26.7h53.4c12.2,0,22.1,9.9,22.1,22.1v86.1C1063.1,147,1053.3,156.9,1041.1,156.9z"/>
	<linearGradient id="SVGID_19_" gradientUnits="userSpaceOnUse" x1="941.95" y1="158.4" x2="941.95" y2="25.2">
		<stop  offset="0" style="stop-color:#0021FF"/>
		<stop  offset="1" style="stop-color:#8197FF"/>
	</linearGradient>
	<path class="st18" d="M926.3,26.7h53.4v130.2h-53.4c-12.2,0-22.1-9.9-22.1-22.1V48.7C904.3,36.5,914.1,26.7,926.3,26.7z"/>
</g>
<g>
	<linearGradient id="SVGID_20_" gradientUnits="userSpaceOnUse" x1="859.35" y1="158.4" x2="859.35" y2="25.2">
		<stop  offset="0" style="stop-color:#0021FF"/>
		<stop  offset="1" style="stop-color:#8197FF"/>
	</linearGradient>
	<path class="st19" d="M875,156.9h-53.4V26.7H875c12.2,0,22.1,9.9,22.1,22.1v86.1C897.1,147,887.2,156.9,875,156.9z"/>
	<linearGradient id="SVGID_21_" gradientUnits="userSpaceOnUse" x1="775.95" y1="158.4" x2="775.95" y2="25.2">
		<stop  offset="0" style="stop-color:#0021FF"/>
		<stop  offset="1" style="stop-color:#8197FF"/>
	</linearGradient>
	<path class="st20" d="M760.3,26.7h53.4v130.2h-53.4c-12.2,0-22.1-9.9-22.1-22.1V48.7C738.2,36.5,748.1,26.7,760.3,26.7z"/>
</g>
<g>
	<linearGradient id="SVGID_22_" gradientUnits="userSpaceOnUse" x1="693.25" y1="158.4" x2="693.25" y2="25.2">
		<stop  offset="0" style="stop-color:#0021FF"/>
		<stop  offset="1" style="stop-color:#8197FF"/>
	</linearGradient>
	<path class="st21" d="M708.9,156.9h-53.4V26.7h53.4c12.2,0,22.1,9.9,22.1,22.1v86.1C731,147,721.1,156.9,708.9,156.9z"/>
	<linearGradient id="SVGID_23_" gradientUnits="userSpaceOnUse" x1="609.85" y1="158.4" x2="609.85" y2="25.2">
		<stop  offset="0" style="stop-color:#0021FF"/>
		<stop  offset="1" style="stop-color:#8197FF"/>
	</linearGradient>
	<path class="st22" d="M594.2,26.7h53.4v130.2h-53.4c-12.2,0-22.1-9.9-22.1-22.1V48.7C572.1,36.5,582,26.7,594.2,26.7z"/>
</g>
<g>
	<linearGradient id="SVGID_24_" gradientUnits="userSpaceOnUse" x1="527.25" y1="158.4" x2="527.25" y2="25.2">
		<stop  offset="0" style="stop-color:#0021FF"/>
		<stop  offset="1" style="stop-color:#8197FF"/>
	</linearGradient>
	<path class="st23" d="M542.9,156.9h-53.4V26.7h53.4c12.2,0,22.1,9.9,22.1,22.1v86.1C564.9,147,555.1,156.9,542.9,156.9z"/>
	<linearGradient id="SVGID_25_" gradientUnits="userSpaceOnUse" x1="443.75" y1="158.4" x2="443.75" y2="25.2">
		<stop  offset="0" style="stop-color:#0021FF"/>
		<stop  offset="1" style="stop-color:#8197FF"/>
	</linearGradient>
	<path class="st24" d="M428.1,26.7h53.4v130.2h-53.4c-12.2,0-22.1-9.9-22.1-22.1V48.7C406.1,36.5,415.9,26.7,428.1,26.7z"/>
</g>
<g>
	<linearGradient id="SVGID_26_" gradientUnits="userSpaceOnUse" x1="361.15" y1="158.4" x2="361.15" y2="25.2">
		<stop  offset="0" style="stop-color:#0021FF"/>
		<stop  offset="1" style="stop-color:#8197FF"/>
	</linearGradient>
	<path class="st25" d="M376.8,156.9h-53.4V26.7h53.4c12.2,0,22.1,9.9,22.1,22.1v86.1C398.9,147,389,156.9,376.8,156.9z"/>
	<linearGradient id="SVGID_27_" gradientUnits="userSpaceOnUse" x1="277.65" y1="158.4" x2="277.65" y2="25.2">
		<stop  offset="0" style="stop-color:#0021FF"/>
		<stop  offset="1" style="stop-color:#8197FF"/>
	</linearGradient>
	<path class="st26" d="M262,26.7h53.4v130.2H262c-12.2,0-22.1-9.9-22.1-22.1V48.7C240,36.5,249.9,26.7,262,26.7z"/>
</g>
<g>
	<linearGradient id="SVGID_28_" gradientUnits="userSpaceOnUse" x1="195.05" y1="158.4" x2="195.05" y2="25.2">
		<stop  offset="0" style="stop-color:#0021FF"/>
		<stop  offset="1" style="stop-color:#8197FF"/>
	</linearGradient>
	<path class="st27" d="M210.7,156.9h-53.4V26.7h53.4c12.2,0,22.1,9.9,22.1,22.1v86.1C232.8,147,222.9,156.9,210.7,156.9z"/>
	<linearGradient id="SVGID_29_" gradientUnits="userSpaceOnUse" x1="111.65" y1="158.4" x2="111.65" y2="25.2">
		<stop  offset="0" style="stop-color:#0021FF"/>
		<stop  offset="1" style="stop-color:#8197FF"/>
	</linearGradient>
	<path class="st28" d="M96,26.7h53.4v130.2H96c-12.2,0-22.1-9.9-22.1-22.1V48.7C73.9,36.5,83.8,26.7,96,26.7z"/>
</g>
<text transform="matrix(1 0 0 1 1180 544)" class="st29 st30">1A</text>
<text transform="matrix(1 0 0 1 1098.6666 544)" class="st29 st30">1B</text>
<text transform="matrix(1 0 0 1 1014 544)" class="st29 st30">2A</text>
<text transform="matrix(1 0 0 1 935.3333 544)" class="st29 st30">2B</text>
<text transform="matrix(1 0 0 1 850 544)" class="st29 st30">3A</text>
<text transform="matrix(1 0 0 1 768 544)" class="st29 st30">3B</text>
<text transform="matrix(1 0 0 1 686.6666 544)" class="st29 st30">4A</text>
<text transform="matrix(1 0 0 1 604 544)" class="st29 st30">4B</text>
<text transform="matrix(1 0 0 1 517.3333 544)" class="st29 st30">5A</text>
<text transform="matrix(1 0 0 1 432.6667 544)" class="st29 st30">5B</text>
<text transform="matrix(1 0 0 1 351.3333 544)" class="st29 st30">6A</text>
<text transform="matrix(1 0 0 1 274 544)" class="st29 st30">6B</text>
<text transform="matrix(1 0 0 1 430.3333 332)" class="st29 st30">8A</text>
<text transform="matrix(1 0 0 1 353 332)" class="st29 st30">8B</text>
<text transform="matrix(1 0 0 1 186.6666 544)" class="st29 st30">7A</text>
<text transform="matrix(1 0 0 1 1180 102)" class="st29 st30">9A</text>
<text transform="matrix(1 0 0 1 1098.6666 102)" class="st29 st30">9B</text>
<text transform="matrix(1 0 0 1 1014 102)" class="st29 st30">10A</text>
<text transform="matrix(1 0 0 1 935.3333 102)" class="st29 st30">10B</text>
<text transform="matrix(1 0 0 1 847 102)" class="st29 st30">11A</text>
<text transform="matrix(1 0 0 1 765 102)" class="st29 st30">11B</text>
<text transform="matrix(1 0 0 1 680.6666 102)" class="st29 st30">12A</text>
<text transform="matrix(1 0 0 1 599 102)" class="st29 st30">12B</text>
<text transform="matrix(1 0 0 1 512.3333 102)" class="st29 st30">13A</text>
<text transform="matrix(1 0 0 1 432.6667 102)" class="st29 st30">13B</text>
<text transform="matrix(1 0 0 1 348.3333 102)" class="st29 st30">14A</text>
<text transform="matrix(1 0 0 1 271 102)" class="st29 st30">14B</text>
<text transform="matrix(1 0 0 1 180.6666 102)" class="st29 st30">15A</text>
<text transform="matrix(1 0 0 1 101.6666 102)" class="st29 st30">15B</text>
</svg>
